<?xml version="1.0" encoding="UTF-8" standalone="no"?><!DOCTYPE svg PUBLIC "-//W3C//DTD SVG 1.1//EN" "http://www.w3.org/Graphics/SVG/1.1/DTD/svg11.dtd"><svg width="100%" height="100%" viewBox="0 0 1179 567" version="1.1" xmlns="http://www.w3.org/2000/svg" xmlns:xlink="http://www.w3.org/1999/xlink" xml:space="preserve" xmlns:serif="http://www.serif.com/" style="fill-rule:evenodd;clip-rule:evenodd;stroke-linecap:round;stroke-linejoin:round;stroke-miterlimit:1.5;"><path d="M733.168,103.082l-81.6,403.42l37.55,0l81.87,-403.42l-37.82,0Z" style="fill:#28720a;fill-rule:nonzero;"/><g><path d="M63.927,125.758l37.503,0l-18.245,69.938l33.956,0l18.245,-69.938l37.503,0l-49.666,190.051l-37.504,-0l24.58,-94.012l-33.955,-0l-24.327,94.012l-37.757,-0l40.038,-153.562c-5.746,3.382 -12.504,5.069 -20.272,5.069c-2.535,-0 -5.156,-0.166 -7.856,-0.507l6.335,-24.326c2.193,0.34 4.308,0.506 6.335,0.506c10.98,0 19.342,-5.741 25.087,-17.231" style="fill:#28720a;fill-rule:nonzero;"/><path d="M186.32,275.771c0.369,6.112 4.287,11.743 9.562,14.741c3.38,1.922 8.35,1.483 12.001,0.68c4.021,-0.884 7.786,-2.696 11.213,-4.948c3.665,-2.408 6.982,-5.321 10.049,-8.445l-8.869,33.955c-7.096,4.562 -14.698,6.842 -22.806,6.842c-7.096,0 -14.191,-1.773 -21.286,-5.321c-15.545,-7.602 -23.313,-22.129 -23.313,-43.585c0,-11.485 2.7,-22.806 8.109,-33.956c5.911,-12.163 14.103,-21.919 24.58,-29.268c10.472,-7.348 21.032,-11.022 31.675,-11.022c5.911,0 11.403,1.183 16.471,3.547c13.343,4.561 20.018,14.697 20.018,30.408c-0,2.875 -0.253,5.492 -0.76,7.855c-2.367,10.644 -8.785,20.019 -19.258,28.128c-10.477,8.108 -21.88,12.163 -34.209,12.163c-4.562,0 -8.957,-0.59 -13.177,-1.774m2.027,-22.045c3.207,0.677 6.418,1.014 9.629,1.014c8.446,0 15.371,-2.027 20.779,-6.081c5.575,-4.898 8.363,-9.796 8.363,-14.698c-0,-2.7 -1.014,-5.321 -3.042,-7.855c-2.026,-2.534 -4.395,-3.801 -7.095,-3.801c-5.915,0 -11.909,3.888 -17.991,11.656c-5.068,6.421 -8.616,13.01 -10.643,19.765" style="fill:#28720a;fill-rule:nonzero;"/><path d="M272.476,315.556c-13.683,-5.911 -20.525,-19.513 -20.525,-40.798c0,-11.822 2.534,-23.649 7.602,-35.477c5.575,-13.176 13.177,-23.946 22.806,-32.308c9.629,-8.363 19.258,-12.543 28.888,-12.543c9.459,0 16.978,3.887 22.552,11.656l2.787,-10.39l34.21,0l-22.046,85.143c-0.341,1.185 -0.507,2.281 -0.507,3.295c0,3.381 1.94,5.067 5.828,5.067c2.194,0 4.645,-0.507 7.349,-1.521l-6.335,22.301c-8.786,5.911 -16.895,8.868 -24.327,8.868c-8.449,0 -15.544,-3.801 -21.285,-11.403c-8.786,6.759 -17.485,10.136 -26.1,10.136c-3.89,0 -7.519,-0.677 -10.897,-2.026m42.317,-94.013c-4.054,0 -8.406,2.534 -13.05,7.603c-4.648,5.068 -8.489,11.743 -11.53,20.018c-2.874,7.604 -4.308,14.951 -4.308,22.046c0,11.32 2.954,16.979 8.869,16.979c3.885,0 8.192,-2.701 12.924,-8.109c4.727,-5.404 8.616,-12.33 11.657,-20.779c3.04,-7.602 4.561,-14.779 4.561,-21.539c0.001,-10.81 -3.041,-16.219 -9.123,-16.219" style="fill:#28720a;fill-rule:nonzero;"/><path d="M390.813,315.809l0.253,-0.507l-6.84,-119.605l33.194,0l4.055,68.164l40.038,-67.91l33.447,0l-70.444,119.858l-33.703,0Z" style="fill:#28720a;fill-rule:nonzero;"/><path d="M679.41,334.813c3.885,0.166 7.516,-1.437 10.896,-4.813l7.604,22.805c-7.943,8.446 -19.347,13.007 -34.212,13.685c-11.876,0.541 -24.133,-7.107 -29.143,-17.776c-5.456,-11.617 -2.937,-25.536 0.18,-37.453c0.479,-1.797 0.956,-3.594 1.435,-5.392c1.201,-4.521 2.401,-9.042 3.602,-13.563c1.579,-5.947 3.155,-11.896 4.73,-17.843c1.607,-6.076 3.215,-12.152 4.815,-18.231c1.292,-4.906 2.568,-9.815 3.859,-14.723c0.533,-2.027 1.045,-4.06 1.565,-6.091c0.935,-3.655 -1.439,-8.215 -4.714,-10.058c-3.241,-1.825 -7.146,-2.692 -10.853,-2.762c-2.812,-0.053 -5.462,0.584 -7.526,2.527c-0.481,0.453 -0.988,1.09 -1.478,1.791c-1.667,2.386 -2.551,5.237 -3.319,8.045l-22.449,80.849l-34.969,0l31.421,-119.605l34.971,0l-2.027,8.109c9.459,-5.575 18.664,-8.362 27.621,-8.362c3.207,0 5.994,0.34 8.36,1.013c13.851,6.252 20.779,16.641 20.779,31.168c0,2.704 -0.254,5.156 -0.759,7.349l-21.273,80.281c-0.723,2.729 -0.97,5.583 -0.532,8.372c1.146,7.323 5.677,10.157 11.416,10.678" style="fill:#28720a;fill-rule:nonzero;"/><path d="M226.413,523.829c3.777,0.16 7.307,-1.398 10.594,-4.682l7.392,22.172c-7.723,8.212 -18.808,12.646 -33.26,13.305c-11.546,0.526 -23.462,-6.909 -28.334,-17.282c-5.304,-11.294 -2.855,-24.827 0.176,-36.412c0.464,-1.748 0.929,-3.495 1.393,-5.242c1.169,-4.395 2.336,-8.791 3.503,-13.186c1.534,-5.782 3.067,-11.565 4.598,-17.348c1.564,-5.907 3.126,-11.814 4.682,-17.725c1.256,-4.769 2.497,-9.544 3.752,-14.314c0.518,-1.97 1.016,-3.946 1.521,-5.921c0.909,-3.554 -1.399,-7.987 -4.581,-9.778c-3.153,-1.775 -6.948,-2.617 -10.552,-2.686c-2.732,-0.052 -5.31,0.568 -7.317,2.456c-0.468,0.441 -0.961,1.061 -1.437,1.741c-1.62,2.32 -2.48,5.092 -3.226,7.822l-21.825,78.602l-33.998,-0l51.854,-197.154l33.998,-0l-23.277,88.758c9.196,-5.42 18.146,-8.131 26.854,-8.131c3.118,-0 5.827,0.33 8.129,0.985c13.464,6.079 20.202,16.179 20.202,30.302c0,2.629 -0.247,5.013 -0.739,7.146l-20.682,78.05c-0.703,2.653 -0.942,5.427 -0.518,8.139c1.114,7.119 5.519,9.874 11.098,10.383" style="fill:#28720a;fill-rule:nonzero;"/><path d="M802.521,423.711c-9.348,-6.722 -20.334,-10.085 -32.959,-10.085c-2.79,0 -5.577,0.903 -8.363,2.706c-2.79,1.807 -4.182,4.021 -4.182,6.641c-0,2.625 3.524,5.742 10.576,9.347c9.84,4.92 16.396,8.693 19.678,11.314c6.888,5.742 10.331,12.629 10.331,20.662c-0,13.939 -4.675,25.131 -14.021,33.574c-9.347,8.447 -21.073,12.667 -35.173,12.667c-4.758,0 -11.48,-0.983 -20.169,-2.951c-9.513,-1.968 -15.658,-4.017 -18.448,-6.148l6.887,-27.304c9.017,5.25 19.839,7.871 32.469,7.871c10.821,0 16.232,-3.032 16.232,-9.101c-0,-4.589 -3.24,-8.689 -9.715,-12.298c-6.479,-3.605 -12.914,-7.134 -19.309,-10.577c-6.727,-5.081 -10.084,-11.476 -10.084,-19.186c-0,-12.625 4.919,-23.2 14.758,-31.729c9.346,-8.032 20.415,-12.052 33.205,-12.052c14.593,0 26.317,3.035 35.174,9.1l-6.887,27.549Z" style="fill:#28720a;fill-rule:nonzero;"/><path d="M841.874,497.993l-26.812,36.896l-13.282,-0.492l11.069,-22.137c-5.25,-0.492 -9.508,-2.503 -12.791,-6.027c-3.278,-3.523 -4.673,-7.828 -4.181,-12.913c0.821,-6.556 4.305,-12.01 10.454,-16.356c6.147,-4.343 12.582,-6.272 19.308,-5.78c5.573,0.331 10.166,2.256 13.774,5.78c3.605,3.528 5.08,7.913 4.428,13.159c-0.331,2.625 -1.069,5.085 -2.214,7.379l0.247,0.491Z" style="fill:#28720a;fill-rule:nonzero;"/><path d="M925.252,390.505l-30.5,116.835l-33.943,-0l30.5,-116.835l33.943,0Zm-7.87,-18.94c-5.577,0.166 -10.331,-1.105 -14.268,-3.813c-3.935,-2.705 -5.903,-6.106 -5.903,-10.207c-0,-4.097 1.969,-7.663 5.903,-10.7c3.937,-3.032 8.69,-4.631 14.268,-4.796c5.571,-0.161 10.329,1.106 14.266,3.813c3.935,2.706 5.903,6.11 5.903,10.208c-0,4.101 -1.969,7.667 -5.903,10.699c-3.937,3.037 -8.695,4.635 -14.266,4.796" style="fill:#28720a;fill-rule:nonzero;"/><path d="M1120.06,434.287c-4.759,-10.165 -10.823,-15.903 -18.202,-17.218c-0.822,-0.326 -1.642,-0.491 -2.459,-0.491c-3.937,-0 -8.363,2.214 -13.282,6.641c-5.411,4.921 -9.593,11.314 -12.545,19.186c-2.459,6.396 -3.69,12.71 -3.69,18.939c0,4.428 0.654,8.528 1.968,12.299c1.969,5.084 4.836,7.625 8.609,7.625c9.838,0.165 20.415,-5.492 31.73,-16.972l-9.102,35.419c-9.185,5.741 -18.367,8.608 -27.549,8.608c-5.741,-0 -11.068,-1.229 -15.987,-3.689c-15.415,-7.379 -23.12,-21.645 -23.12,-42.798c0,-11.314 2.62,-22.464 7.87,-33.451c5.737,-11.642 13.486,-21.03 23.243,-28.163c9.755,-7.134 19.716,-10.7 29.887,-10.7c12.459,-0 22.543,5.25 30.254,15.743l-7.625,29.022Z" style="fill:#28720a;fill-rule:nonzero;"/><path d="M1142.44,471.183c5.571,0.33 10.165,2.256 13.772,5.78c3.606,3.529 5.081,7.913 4.428,13.159c-0.821,6.887 -4.347,12.464 -10.575,16.726c-6.234,4.263 -12.791,6.064 -19.679,5.411c-5.411,-0.33 -9.754,-2.214 -13.036,-5.657c-3.77,-3.604 -5.326,-8.032 -4.673,-13.282c0.823,-6.557 4.305,-12.01 10.453,-16.356c6.15,-4.344 12.583,-6.274 19.31,-5.781" style="fill:#28720a;fill-rule:nonzero;"/><path d="M822.607,322.854c-7.267,11.822 -12.163,19.425 -14.697,22.806c-5.239,6.926 -11.657,13.008 -19.259,18.245c-9.971,6.926 -19.683,10.39 -29.142,10.39c-14.356,-0.677 -21.452,-5.238 -21.286,-13.684l16.473,-22.807c0.17,3.378 2.621,4.981 7.348,4.815c7.939,-0.678 16.471,-7.266 25.593,-19.766l-11.655,-120.112l34.97,0l6.842,70.445l43.078,-70.191l34.968,0l-73.233,119.859Z" style="fill:#28720a;fill-rule:nonzero;"/><path d="M433.052,391.473l-7.625,31.978c-4.266,-2.46 -8.282,-3.69 -12.052,-3.69c-8.694,0 -15.496,5.987 -20.416,17.955l-18.447,68.379l-33.943,0l31.237,-116.097l33.944,0l-1.968,7.379c8.032,-5.08 15.331,-7.625 21.891,-7.625c2.952,-0.001 5.411,0.576 7.379,1.721" style="fill:#28720a;fill-rule:nonzero;"/><path d="M456.665,493.551l-3.444,12.789l-33.943,0l45.75,-174.391l34.189,0l-17.955,67.887c8.689,-6.722 17.218,-10.085 25.58,-10.085c3.77,0 7.214,0.657 10.331,1.969c13.117,5.576 19.677,18.285 19.677,38.125c0,11.152 -2.459,22.382 -7.379,33.696c-5.411,12.791 -12.752,23.164 -22.014,31.115c-9.266,7.955 -18.49,11.93 -27.671,11.93c-9.839,0 -17.548,-4.343 -23.121,-13.035m38.863,-80.433c-3.936,0 -8.202,2.544 -12.791,7.625c-4.592,5.085 -8.362,11.522 -11.314,19.31c-2.952,7.789 -4.427,14.965 -4.427,21.521c0,10.988 3.197,16.481 9.593,16.481c3.935,0 8.197,-2.541 12.79,-7.625c4.588,-5.082 8.443,-11.643 11.56,-19.679c2.786,-7.54 4.182,-14.593 4.182,-21.153c-0,-10.984 -3.198,-16.48 -9.593,-16.48" style="fill:#28720a;fill-rule:nonzero;"/><path d="M560.461,505.848c-13.282,-5.737 -19.923,-18.939 -19.923,-39.601c0,-11.476 2.46,-22.956 7.379,-34.436c5.412,-12.79 12.79,-23.243 22.137,-31.36c9.347,-8.117 18.693,-12.175 28.041,-12.175c9.181,0 16.479,3.773 21.89,11.313l2.706,-10.085l33.205,0l-21.398,82.646c-0.33,1.148 -0.491,2.213 -0.491,3.196c0,3.282 1.883,4.92 5.657,4.92c2.129,0 4.508,-0.491 7.133,-1.477l-6.15,21.646c-8.528,5.738 -16.398,8.608 -23.612,8.608c-8.2,0 -15.089,-3.689 -20.662,-11.068c-8.527,6.561 -16.971,9.839 -25.334,9.839c-3.774,0.001 -7.298,-0.656 -10.578,-1.966m41.078,-91.254c-3.937,-0 -8.16,2.46 -12.668,7.379c-4.511,4.92 -8.239,11.399 -11.191,19.433c-2.79,7.378 -4.181,14.511 -4.181,21.398c-0,10.987 2.867,16.479 8.608,16.479c3.771,-0 7.952,-2.621 12.545,-7.871c4.588,-5.246 8.363,-11.967 11.315,-20.169c2.951,-7.378 4.427,-14.347 4.427,-20.907c-0,-10.492 -2.953,-15.742 -8.855,-15.742" style="fill:#28720a;fill-rule:nonzero;"/><path d="M885.505,344.823c-0.069,-7.252 2.038,-13.802 6.28,-19.654c7.091,-9.784 18.999,-14.364 30.286,-11.697c11.506,2.718 21.133,13.334 22.903,25.349c1.133,7.692 0.349,15.104 -3.443,22.052c-6.383,11.697 -19.022,18.081 -31.167,15.695c-12.668,-2.489 -22.933,-13.596 -24.467,-26.513c-0.206,-1.736 -0.265,-3.488 -0.392,-5.232" style="fill:#28720a;fill-rule:nonzero;"/><path d="M981.386,281.502c0.249,6.065 -1.32,11.602 -4.453,16.696c-11.439,18.596 -37.22,18.103 -47.956,-0.906c-10.255,-18.157 -0.772,-40.813 18.982,-45.351c10.614,-2.437 22.275,2.636 28.574,12.506c3.322,5.202 5.107,10.88 4.853,17.055" style="fill:#28720a;fill-rule:nonzero;"/><path d="M933.853,215.326c-0.207,-19.113 12.757,-33.002 28.567,-31.918c5.871,0.402 11.053,2.446 15.326,6.356c9.172,8.389 12.272,18.873 8.896,30.752c-3.188,11.218 -10.712,18.313 -22.463,20.332c-6.243,1.073 -12.024,-0.532 -17.218,-3.94c-8.83,-5.795 -12.795,-14.308 -13.108,-21.582" style="fill:#28720a;fill-rule:nonzero;"/><path d="M916.329,149.886c-0.109,-7.544 2.486,-14.063 7.752,-19.451c9.822,-10.052 24.941,-10.081 34.887,-0.129c10.836,10.843 10.778,29.239 -0.283,39.848c-7.221,6.925 -15.865,9.031 -25.262,5.599c-10.259,-3.748 -15.547,-11.751 -17.072,-22.376c-0.164,-1.142 -0.022,-2.326 -0.022,-3.491" style="fill:#28720a;fill-rule:nonzero;"/><path d="M881.077,101.982c-0.088,-13.128 7.495,-22.81 19.433,-25.384c6.351,-1.369 11.979,0.47 16.994,4.165c13.021,9.593 13.488,29.87 0.973,40.13c-6.753,5.536 -14.477,6.659 -22.446,3.51c-8.662,-3.423 -13.328,-10.333 -14.779,-19.448c-0.183,-1.144 -0.141,-2.326 -0.175,-2.973" style="fill:#28720a;fill-rule:nonzero;"/><path d="M879.85,66.434c-0.087,12.327 -8.878,22.25 -20.022,23.223c-15.813,1.381 -26.459,-14.015 -23.65,-28.03c2.685,-13.4 14.392,-21.326 26.962,-18.345c9.806,2.325 16.788,11.997 16.71,23.152" style="fill:#28720a;fill-rule:nonzero;"/><path d="M828.162,44.941c0.102,11.919 -8.653,21.485 -19.846,21.686c-11.217,0.202 -20.345,-9.132 -20.525,-20.988c-0.185,-12.089 8.911,-22.089 20.12,-22.124c10.995,-0.034 20.152,9.654 20.251,21.426" style="fill:#28720a;fill-rule:nonzero;"/><path d="M775.951,34.482c-0.097,11.635 -8.643,20.323 -19.659,19.987c-10.407,-0.318 -18.601,-9.806 -18.131,-20.998c0.485,-11.579 9.342,-20.044 20.308,-19.413c9.861,0.568 17.573,9.577 17.482,20.424" style="fill:#28720a;fill-rule:nonzero;"/><path d="M725.693,33.127c-0.052,9.138 -6.253,16.823 -14.369,17.808c-8.986,1.091 -16.913,-4.503 -19.008,-13.415c-2.158,-9.177 2.853,-18.957 11.179,-21.816c11.155,-3.83 22.27,4.893 22.198,17.423" style="fill:#28720a;fill-rule:nonzero;"/><path d="M661.652,55.564c-8.203,-0.04 -15.052,-7.377 -15.082,-16.154c-0.03,-9.126 6.868,-16.271 15.557,-16.113c8.415,0.153 14.839,7.27 14.711,16.296c-0.127,8.916 -6.875,16.012 -15.186,15.971" style="fill:#28720a;fill-rule:nonzero;"/><path d="M632.152,52.712c-0.072,8.264 -6.681,15.004 -14.165,14.449c-8.077,-0.6 -13.671,-8.232 -12.528,-17.095c1.046,-8.12 8.338,-13.302 16.313,-11.594c6.195,1.327 10.444,7.156 10.38,14.24" style="fill:#28720a;fill-rule:nonzero;"/><path d="M565.3,71.09c-0.033,-7.682 5.576,-13.761 12.726,-13.791c7.093,-0.031 12.891,6.096 12.928,13.659c0.036,7.522 -5.768,13.791 -12.799,13.824c-7.13,0.033 -12.822,-6.031 -12.855,-13.692" style="fill:#28720a;fill-rule:nonzero;"/><path d="M555.304,96.713c-0.036,6.995 -5.315,12.629 -11.779,12.572c-6.491,-0.058 -11.649,-5.706 -11.619,-12.723c0.03,-7.074 5.148,-12.492 11.766,-12.458c6.618,0.035 11.669,5.509 11.632,12.609" style="fill:#28720a;fill-rule:nonzero;"/><path d="M526.494,125.392c0.12,5.379 -4.065,9.848 -9.236,9.863c-5.114,0.014 -8.929,-3.843 -9.132,-9.233c-0.209,-5.548 3.686,-10.096 8.793,-10.271c5.032,-0.172 9.456,4.282 9.575,9.641" style="fill:#28720a;fill-rule:nonzero;"/><path d="M513.126,275.771c0.369,6.112 4.287,11.743 9.562,14.741c3.38,1.922 8.35,1.483 12.001,0.68c4.021,-0.884 7.786,-2.696 11.213,-4.948c3.665,-2.408 6.982,-5.321 10.049,-8.445l-8.869,33.955c-7.096,4.562 -14.698,6.842 -22.806,6.842c-7.096,0 -14.191,-1.773 -21.286,-5.321c-15.545,-7.602 -23.313,-22.129 -23.313,-43.585c0,-11.485 2.7,-22.806 8.109,-33.956c5.911,-12.163 14.103,-21.919 24.58,-29.268c10.472,-7.348 21.032,-11.022 31.675,-11.022c5.911,0 11.403,1.183 16.471,3.547c13.343,4.561 20.018,14.697 20.018,30.408c0,2.875 -0.253,5.492 -0.76,7.855c-2.367,10.644 -8.785,20.019 -19.258,28.128c-10.477,8.108 -21.88,12.163 -34.209,12.163c-4.562,0 -8.957,-0.59 -13.177,-1.774m2.027,-22.045c3.207,0.677 6.418,1.014 9.629,1.014c8.446,0 15.371,-2.027 20.779,-6.081c5.575,-4.898 8.363,-9.796 8.363,-14.698c0,-2.7 -1.014,-5.321 -3.042,-7.855c-2.026,-2.534 -4.395,-3.801 -7.095,-3.801c-5.915,0 -11.909,3.888 -17.991,11.656c-5.068,6.421 -8.616,13.01 -10.643,19.765" style="fill:#28720a;fill-rule:nonzero;"/><path d="M1023.96,525.918c3.807,0.163 7.365,-1.409 10.679,-4.719l7.452,22.351c-7.785,8.277 -18.961,12.748 -33.528,13.412c-11.64,0.53 -23.652,-6.966 -28.563,-17.422c-5.346,-11.386 -2.877,-25.027 0.178,-36.706c0.469,-1.762 0.937,-3.523 1.404,-5.284c1.179,-4.432 2.355,-8.861 3.531,-13.293c1.547,-5.828 3.092,-11.657 4.635,-17.487c1.577,-5.955 3.151,-11.91 4.721,-17.867c1.267,-4.808 2.517,-9.621 3.781,-14.429c0.523,-1.987 1.025,-3.979 1.534,-5.97c0.916,-3.582 -1.411,-8.052 -4.619,-9.857c-3.178,-1.789 -7.003,-2.638 -10.637,-2.707c-2.754,-0.053 -5.352,0.572 -7.375,2.477c-0.473,0.443 -0.969,1.068 -1.449,1.755c-1.633,2.339 -2.5,5.133 -3.252,7.885l-22.002,79.236l-34.271,0l30.794,-117.22l34.272,0l-1.986,7.948c9.27,-5.464 18.291,-8.196 27.069,-8.196c3.144,0 5.874,0.333 8.194,0.994c13.573,6.127 20.365,16.309 20.365,30.546c0,2.65 -0.249,5.053 -0.745,7.202l-20.849,78.68c-0.709,2.675 -0.949,5.471 -0.522,8.204c1.124,7.178 5.564,9.954 11.189,10.467" style="fill:#28720a;fill-rule:nonzero;"/><path d="M279.698,467.073c0.358,5.944 4.169,11.419 9.298,14.335c3.287,1.868 8.12,1.441 11.669,0.661c3.911,-0.859 7.572,-2.623 10.905,-4.813c3.563,-2.342 6.788,-5.174 9.771,-8.211l-8.625,33.018c-6.899,4.435 -14.291,6.653 -22.176,6.653c-6.9,0 -13.799,-1.726 -20.698,-5.176c-15.116,-7.392 -22.67,-21.518 -22.67,-42.382c0,-11.169 2.626,-22.176 7.885,-33.019c5.748,-11.827 13.714,-21.314 23.902,-28.459c10.183,-7.146 20.451,-10.719 30.8,-10.719c5.749,0 11.089,1.15 16.017,3.448c12.975,4.437 19.466,14.292 19.466,29.569c0,2.796 -0.246,5.341 -0.739,7.639c-2.303,10.351 -8.544,19.466 -18.727,27.353c-10.187,7.884 -21.276,11.827 -33.265,11.827c-4.435,0.002 -8.709,-0.572 -12.813,-1.724m1.971,-21.436c3.118,0.658 6.241,0.985 9.364,0.985c8.212,-0 14.945,-1.972 20.205,-5.914c5.421,-4.763 8.131,-9.525 8.131,-14.292c-0,-2.626 -0.985,-5.175 -2.957,-7.639c-1.971,-2.464 -4.273,-3.696 -6.899,-3.696c-5.752,-0 -11.581,3.781 -17.495,11.335c-4.928,6.245 -8.378,12.652 -10.349,19.221" style="fill:#28720a;fill-rule:nonzero;"/><circle cx="1046.53" cy="338.175" r="22.366" style="fill:none;stroke:#28720a;stroke-width:3.72px;"/><path d="M1060.55,351.963l-4.759,0l-9.223,-10.963l-5.167,-0l-0,10.963l-3.667,0l-0,-27.576l7.723,0c1.666,0 3.055,0.108 4.166,0.325c1.112,0.216 2.112,0.601 3.001,1.157c1,0.63 1.781,1.423 2.342,2.38c0.562,0.957 0.843,2.17 0.843,3.639c0,1.988 -0.5,3.651 -1.5,4.991c-1,1.34 -2.377,2.349 -4.13,3.028l10.371,12.056Zm-8.574,-19.816c-0,-0.79 -0.139,-1.491 -0.417,-2.102c-0.278,-0.611 -0.738,-1.126 -1.38,-1.546c-0.531,-0.358 -1.16,-0.608 -1.889,-0.75c-0.728,-0.142 -1.586,-0.213 -2.574,-0.213l-4.315,-0l-0,10.408l3.704,-0c1.16,-0 2.173,-0.102 3.037,-0.306c0.864,-0.203 1.599,-0.583 2.204,-1.139c0.555,-0.518 0.966,-1.114 1.231,-1.787c0.266,-0.673 0.399,-1.528 0.399,-2.565Z" style="fill:#28720a;fill-rule:nonzero;"/></g><g id="Layer1"></g></svg>